/* XPM */
static const char * cross_selected_xpm[] = {
"14 14 143 2",
"  	c #F8F8F8",
". 	c #E9B4B4",
"+ 	c #C92121",
"@ 	c #C10000",
"# 	c #C51515",
"$ 	c #E18D8D",
"% 	c #E8B3B3",
"& 	c #CA0C14",
"* 	c #E8A6B0",
"= 	c #EEC2CB",
"- 	c #EEBFCA",
"; 	c #EBB0B9",
"> 	c #CA0A13",
", 	c #DC7A7A",
"' 	c #DC7383",
") 	c #DD7D8E",
"! 	c #DD7A8B",
"~ 	c #DD788A",
"{ 	c #DD798B",
"] 	c #DD7C8D",
"^ 	c #DD7A8D",
"/ 	c #C40B0B",
"( 	c #C20000",
"_ 	c #DC7387",
": 	c #D9697C",
"< 	c #D75F74",
"[ 	c #DD798A",
"} 	c #D86579",
"| 	c #D8687B",
"1 	c #D96A7D",
"2 	c #DA7183",
"3 	c #C80814",
"4 	c #C30000",
"5 	c #D76077",
"6 	c #F3D1D7",
"7 	c #FEF9FA",
"8 	c #D76076",
"9 	c #FAEEEF",
"0 	c #DA6E80",
"a 	c #DA6F81",
"b 	c #DA7286",
"c 	c #CA0313",
"d 	c #AD0000",
"e 	c #DD7183",
"f 	c #D96779",
"g 	c #DC7887",
"h 	c #FCF9F9",
"i 	c #FFFFFF",
"j 	c #F9E8EA",
"k 	c #D26476",
"l 	c #D01738",
"m 	c #DD5F73",
"n 	c #B90510",
"o 	c #8F0000",
"p 	c #DE697A",
"q 	c #D96072",
"r 	c #D75D6D",
"s 	c #C57679",
"t 	c #A84850",
"u 	c #BA0000",
"v 	c #CF0000",
"w 	c #D10000",
"x 	c #9F0000",
"y 	c #760000",
"z 	c #E05B65",
"A 	c #D9535E",
"B 	c #D9525D",
"C 	c #D84953",
"D 	c #EDE1E0",
"E 	c #FBFBFC",
"F 	c #F3EFF1",
"G 	c #C70008",
"H 	c #DD0000",
"I 	c #DE0000",
"J 	c #E50000",
"K 	c #900000",
"L 	c #5A0000",
"M 	c #E24952",
"N 	c #D9424A",
"O 	c #D9464D",
"P 	c #E6DADC",
"Q 	c #E7EAED",
"R 	c #EAEEEF",
"S 	c #E2E1E3",
"T 	c #E8EAED",
"U 	c #E8E4E6",
"V 	c #E90825",
"W 	c #EF0000",
"X 	c #F30000",
"Y 	c #810000",
"Z 	c #410000",
"` 	c #E33138",
" .	c #DA2B31",
"..	c #D3252E",
"+.	c #C5BDC1",
"@.	c #DAE1E3",
"#.	c #9C3642",
"$.	c #940000",
"%.	c #D4D8DA",
"&.	c #D1D8DA",
"*.	c #D50A1F",
"=.	c #F20000",
"-.	c #F50000",
";.	c #6F0000",
">.	c #3C0000",
",.	c #E5171E",
"'.	c #DC1319",
").	c #C80000",
"!.	c #820000",
"~.	c #913039",
"{.	c #95000D",
"].	c #83000C",
"^.	c #4B1414",
"/.	c #D40000",
"(.	c #DA0000",
"_.	c #BE0000",
":.	c #B60000",
"<.	c #EB0000",
"[.	c #460000",
"}.	c #A28484",
"|.	c #5E0000",
"1.	c #E80000",
"2.	c #E41200",
"3.	c #DE1B00",
"4.	c #E51F00",
"5.	c #EB2200",
"6.	c #F22400",
"7.	c #F82700",
"8.	c #F92700",
"9.	c #F92500",
"0.	c #880000",
"a.	c #886262",
"b.	c #EAEAEA",
"c.	c #977474",
"d.	c #3E0A0A",
"e.	c #6A0000",
"f.	c #670000",
"g.	c #680000",
"h.	c #690000",
"i.	c #6C0000",
"j.	c #6E0000",
"k.	c #720000",
"l.	c #450000",
"  . + @ @ @ @ @ @ @ @ # $   ",
"% & * = - - - - - - = ; > , ",
"+ ' ) ! ! ~ ! ! { { ! ] ^ / ",
"( _ : : < [ } | 1 1 | : 2 3 ",
"4 _ 1 5 6 7 ! 8 9 9 0 a b c ",
"d e f g h i 7 j i i k l m n ",
"o p q r s h i i i t u v w x ",
"y z A B C D E E F G H I J K ",
"L M N O P Q R S T U V W X Y ",
"Z `  ...+.@.#.$.%.&.*.=.-.;.",
">.,.'.).!.~.@ H {.].H =.-.;.",
"^./.(._.:.u v I <.J =.W -.[.",
"}.|.1.2.3.4.5.6.7.8.8.9.0.a.",
"b.c.d.e.f.g.h.i.j.;.k.l.a.b."};
