/* XPM */
static const char * Data_tool_unclicked_xpm[] = {
"36 36 5 1",
" 	c None",
".	c #EAEAEA",
"+	c #101010",
"@	c #FF0000",
"#	c #FFFFFF",
"....................................",
"....................................",
"....................................",
"....................................",
".....+...+..........................",
"......+.+...........................",
".......+................+...+.......",
"......+.+.....+...+......+.+........",
".....+...+...+@+.+@+......+.........",
"..............+@+@+......+.+........",
"...............+........+...+.......",
"..............+@.+..................",
".............+@+.++.................",
"..............+..+++................",
".................++++...............",
".................+++++.....+...+....",
".................++++++.....+.+.....",
".................+++++++.....+......",
".......+...+.....++++++++...+.+.....",
"........+.+......+++++.....+...+....",
".........+.......++.++..............",
"........+.+......+...++.............",
".......+...+.........++.............",
"......................++............",
"......................++............",
"....................................",
"....................+...............",
".........++++.......+...............",
".........+###+.++..+++.++...........",
".........+###+...+..+....+..........",
".........+###+.+++..+..+++..........",
".........+###+.+#+..+..+#+..........",
".........++++..++.+.+..++.+.........",
"....................................",
"....................................",
"...................................."};
