/* XPM */
static const char * forward_xpm[] = {
"32 33 3 1",
" 	c None",
".	c #EEEAE6",
"+	c #101010",
"................................",
"................................",
"................................",
"................................",
"................................",
".......++++.....................",
".......+++++....................",
".......+++++++..................",
".......++++++++.................",
".......++++++++++...............",
".......+++++++++++..............",
".......+++++++++++++............",
".......++++++++++++++...........",
".......++++++++++++++++.........",
".......+++++++++++++++++........",
".......+++++++++++++++++++......",
".......++++++++++++++++++++.....",
".......+++++++++++++++++++......",
".......+++++++++++++++++........",
".......++++++++++++++++.........",
".......++++++++++++++...........",
".......+++++++++++++............",
".......+++++++++++..............",
".......++++++++++...............",
".......++++++++.................",
".......+++++++..................",
".......+++++....................",
".......++++.....................",
"................................",
"................................",
"................................",
"................................",
"................................"};
