/* XPM */
static const char * Node_tool_clicked_xpm[] = {
"36 36 13 1",
" 	c None",
".	c #FF0000",
"+	c #FF0E0E",
"@	c #FF1818",
"#	c #FF2020",
"$	c #FF2929",
"%	c #FF3232",
"&	c #FF1212",
"*	c #FFFFFF",
"=	c #FF3131",
"-	c #101010",
";	c #FF1F1F",
">	c #FF1616",
"..............................+@#$%&",
".**********************************=",
".***************---****************$",
".***************---****************;",
".*************-*---*-**************>",
".***********-*********-************+",
".******----*************----*******.",
".******---***************---*******.",
".******---*-****---****-*---*******.",
".************-*-...-*-*************.",
".*******-******-.**-******-********.",
".**************-.*-****************.",
".*******-*******-*--******-********.",
".*****************---**************.",
".*******-*********----****-********.",
".*****************-----************.",
".******---********------*---*******.",
".******---********-------*--*******.",
".******----*******--------*-*******.",
".***********-*****-----************.",
".*************-*-*--*--************.",
".***************-*-***--***********.",
".***************-*****--***********.",
".**********************--**********.",
".**********************--**********.",
".**********************************.",
".**********************-***********.",
".********-***-*********-***********.",
".********--**-**--***---**-********.",
".********-*-*-*-**-*-**-*-*-*******.",
".********-*-*-*-**-*-**-*---*******.",
".********-**--*-**-*-**-*-*********.",
".********-***-**--***---**--*******.",
".**********************************.",
".**********************************.",
"...................................."};
