/* XPM */
static const char * tickbox_xpm[] = {
"13 13 36 1",
" 	c None",
".	c #BAB8B7",
"+	c #73706D",
"@	c #777471",
"#	c #767370",
"$	c #F7F7F7",
"%	c #FFFFFF",
"&	c #EFEFEF",
"*	c #646464",
"=	c #DCDCDC",
"-	c #ECECEC",
";	c #404040",
">	c #1A1A1A",
",	c #8C8C8C",
"'	c #FDFDFD",
")	c #515151",
"!	c #919191",
"~	c #D5D5D5",
"{	c #B8B8B8",
"]	c #A1A1A1",
"^	c #767676",
"/	c #FBFBFB",
"(	c #1F1F1F",
"_	c #B4B4B4",
":	c #EAEAEA",
"<	c #272727",
"[	c #373737",
"}	c #F5F5F5",
"|	c #2D2D2D",
"1	c #3F3F3F",
"2	c #B1B1B1",
"3	c #292929",
"4	c #1E1E1E",
"5	c #282828",
"6	c #939393",
"7	c #E4E4E4",
".++++++++++@.",
"#$%%%%%%%%%$#",
"+%%%%%%%&*=%+",
"+%%%%%%-;>,%+",
"+%%%%%')>!%%+",
"+%~{%%]>^%%%+",
"+/;(_:<[}%%%+",
"+%~|(1>2%%%%+",
"+%%~3>4/%%%%+",
"+%%%~56%%%%%+",
"+%%%%~7%%%%%+",
"#$%%%%%%%%%$#",
".@+++++++++@."};
