/* XPM */
static const char * Transform_tool_clicked_xpm[] = {
"36 36 12 1",
" 	c None",
".	c #FF0000",
"+	c #FFFFFF",
"@	c #101010",
"#	c #D3D3D3",
"$	c #A9A9A9",
"%	c #FF0202",
"&	c #FF0404",
"*	c #FF0808",
"=	c #FF0B0B",
"-	c #FF0F0F",
";	c #FF1414",
"....................................",
".++++++++++++++++++++++++++++++++++.",
".++++++++++++++++@+++++++++++++++++.",
".+++++++++++++++@+@++++++++++++++++.",
".++++++++++++++@+++@+++++++++++++++.",
".+++++++++++++@@@+@@@++++++++++++++.",
".++++++++++@@+++@+@+++@@+++++++++++.",
".++++++++@@@@+++@@@+++@@@@+++++++++.",
".+++++++++@@+++++++++++@@++++++++++.",
".++++++++@+@++++@@@++++@+@+++++++++.",
".++++++++@++++@@+++@@++++@+++++++++.",
".+++++@+@+++@@+++++++@@+++@+@++++++.",
".++++@@+@+++@#@@+++@@$@+++@+@@+++++.",
".+++@+@@@@@+@###@@@$$$@+@@@@@+@++++.",
".++@++++++@+@####@$$$$@+@++++++@+++.",
".+++@+@@@@@+@####@$$$$@+@@@@@+@++++.",
".++++@@+@+++@####@$$$$@+++@+@@+++++.",
".+++++@+@+++@@###@$$$@@+++@+@++++++.",
".++++++++@++++@@#@$@@++++@+++++++++.",
".++++++++@+@++++@@@++++@+@+++++++++.",
".+++++++++@@+++++++++++@@++++++++++.",
".++++++++@@@@+++@@@+++@@@@+++++++++.",
".++++++++++@@+++@+@+++@@+++++++++++.",
".+++++++++++++@@@+@@@++++++++++++++.",
".++++++++++++++@+++@+++++++++++++++.",
".+++++++++++++++@+@++++++++++++++++.",
".++++++++++++++++@+++++++++++@+++++.",
".++++@@@@@++++++++++++++++++@++++++.",
".++++++@++@+@+@@++@@@+++@@+@@@+++++.",
".++++++@++@@++++@+@++@+@++++@++++++%",
".++++++@++@+++@@@+@++@++@@++@++++++&",
".++++++@++@+++@+@+@++@+++@++@++++++*",
".++++++@++@+++@@+@@++@+@@+++@+@++++=",
".++++++++++++++++++++++++++++++++++-",
".++++++++++++++++++++++++++++++++++;",
"...................................."};
