/* XPM */
static const char * backward_by_frame_xpm[] = {
"34 35 6 1",
" 	c None",
".	c #FFFFFF",
"+	c #8A8885",
"@	c #EEEAE6",
"#	c #101010",
"$	c #908E8B",
".................................+",
"................................++",
"..@@@@@@@@@@@@@@@@@@@@@@@@@@@@@@++",
"..@@@@@@@@@@@@@@@@@@@@@@@@@@@@@@++",
"..@@@@@@@@@@@@@@@@@@@@@@@@@@@@@@++",
"..@@@@@@@@@@@@@@@@@@@@@@@@@@@@@@++",
"..@@@####@@@@@@@@@@@@@@####@@@@@++",
"..@@@####@@@@@@@@@@@@@#####@@@@@++",
"..@@@####@@@@@@@@@@@#######@@@@@++",
"..@@@####@@@@@@@@@@########@@@@@++",
"..@@@####@@@@@@@@##########@@@@@++",
"..@@@####@@@@@@@###########@@@@@++",
"..@@@####@@@@@#############@@@@@++",
"..@@@####@@@@##############@@@@@++",
"..@@@####@@################@@@@@++",
"..@@@####@#################@@@@@++",
"..@@@######################@@@@@++",
"..@@@######################@@@@@++",
"..@@@######################@@@@@++",
"..@@@####@#################@@@@@++",
"..@@@####@@################@@@@@++",
"..@@@####@@@@##############@@@@@++",
"..@@@####@@@@@#############@@@@@++",
"..@@@####@@@@@@@###########@@@@@++",
"..@@@####@@@@@@@@##########@@@@@++",
"..@@@####@@@@@@@@@@########@@@@@++",
"..@@@####@@@@@@@@@@@#######@@@@@++",
"..@@@####@@@@@@@@@@@@@#####@@@@@++",
"..@@@####@@@@@@@@@@@@@@####@@@@@++",
"..@@@@@@@@@@@@@@@@@@@@@@@@@@@@@@++",
"..@@@@@@@@@@@@@@@@@@@@@@@@@@@@@@++",
"..@@@@@@@@@@@@@@@@@@@@@@@@@@@@@@++",
"..@@@@@@@@@@@@@@@@@@@@@@@@@@@@@@++",
".+++++++++++++++++++++++++++++++++",
"++++++++++++++++++++++++++++$+++++"};
