/* XPM */
static char * Cad_tool_unclicked_xpm[] = {
"36 36 6 1",
" 	c None",
".	c #EAEAEA",
"+	c #000000",
"@	c #101010",
"#	c #FF0000",
"$	c #FFFFFF",
"....................................",
"...........................+........",
".........................+..........",
".......................+.....+......",
"..............@..@..@...............",
"............@..................+....",
"..........@.........................",
".................................+..",
".........@.............+..+.........",
"....................+#####..........",
"........@..+........######.......+..",
".......+.....+....+#######+.........",
"..................###..###..........",
"...............+..###.@.##..........",
"......+..........+###.@@.#+.+..+....",
".................####.@@@........+..",
"................+####.@@@@.@........",
".....+...........####.@@@@@.........",
".................####.@@@@@@........",
".................+$##.@@@@@@@.......",
"....+..............@..@@@@@@@@......",
"......................@@@@@.........",
"......................@@.@@.........",
"...+..............+...@...@@........",
"..........................@@........",
".....+...........+.........@@....+..",
"........+.............+++..@@....+..",
".....................+...........+..",
"................+....+....+++.++++..",
"..........+..........+......+.+..+..",
".............+.......+....+++.+..+..",
"................+....+....+.+.+..+..",
"......................+++.+++.++++..",
"....................................",
"....................................",
"...................................."};
