/* XPM */
static char * cross_xpm[] = {
"14 14 159 2",
"  	c #F8F8F8",
". 	c #EFCCCD",
"+ 	c #DA6469",
"@ 	c #D64E53",
"# 	c #D85C61",
"$ 	c #E9B1B4",
"% 	c #EECBCC",
"& 	c #DA6A6E",
"* 	c #EEC4CA",
"= 	c #F2D5DC",
"- 	c #F2D4DA",
"; 	c #F0CAD0",
"> 	c #DA696D",
", 	c #E6A5A8",
"' 	c #DA676B",
") 	c #E6A4AE",
"! 	c #E7ABB5",
"~ 	c #E6A9B3",
"{ 	c #E6A7B2",
"] 	c #E6A8B3",
"^ 	c #E7AAB4",
"/ 	c #E6A9B4",
"( 	c #D7565C",
"_ 	c #D55156",
": 	c #E6A4B1",
"< 	c #E59EAA",
"[ 	c #E398A5",
"} 	c #E7A8B2",
"| 	c #E49CA8",
"1 	c #E49DA9",
"2 	c #E59FAB",
"3 	c #E5A2AE",
"4 	c #D9696E",
"5 	c #D65156",
"6 	c #E399A6",
"7 	c #F5DFE3",
"8 	c #FCF9F9",
"9 	c #E7A9B3",
"0 	c #E399A5",
"a 	c #F9F1F3",
"b 	c #E5A1AC",
"c 	c #E5A1AD",
"d 	c #E5A3B0",
"e 	c #DA666D",
"f 	c #C85052",
"g 	c #E6A2AE",
"h 	c #E59DA8",
"i 	c #E6A7B1",
"j 	c #FBF9F9",
"k 	c #FDFDFD",
"l 	c #F9EEEF",
"m 	c #E09BA5",
"n 	c #DE6F81",
"o 	c #E698A4",
"p 	c #D0686C",
"q 	c #B44C4D",
"r 	c #E79DA8",
"s 	c #E498A2",
"t 	c #E295A0",
"u 	c #D7A4A7",
"v 	c #FAF8F8",
"w 	c #FCFCFC",
"x 	c #C4898F",
"y 	c #D03F50",
"z 	c #DC4059",
"A 	c #DE3F57",
"B 	c #BF4D54",
"C 	c #A24647",
"D 	c #E69299",
"E 	c #E28E94",
"F 	c #E28E93",
"G 	c #E1888E",
"H 	c #EEE6E6",
"I 	c #F7F7F8",
"J 	c #F2F0F0",
"K 	c #D65B66",
"L 	c #E33F55",
"M 	c #E5465A",
"N 	c #E9465A",
"O 	c #B34A4F",
"P 	c #924343",
"Q 	c #E7888E",
"R 	c #E28489",
"S 	c #E2868A",
"T 	c #EAE2E3",
"U 	c #EAECEE",
"V 	c #ECEEF0",
"W 	c #E7E6E7",
"X 	c #EBECEE",
"Y 	c #EBE8EA",
"Z 	c #EC6674",
"` 	c #F04656",
" .	c #F24A5A",
"..	c #AA494B",
"+.	c #833F3D",
"@.	c #E77A7E",
"#.	c #E2777A",
"$.	c #DE7479",
"%.	c #D5CFD2",
"&.	c #E2E6E7",
"*.	c #BA7D84",
"=.	c #B6585F",
"-.	c #DEE1E2",
";.	c #DCE1E2",
">.	c #DE6670",
",.	c #F14657",
"'.	c #F34A5A",
").	c #9E4546",
"!.	c #80403D",
"~.	c #E96C6F",
"{.	c #E36A6D",
"].	c #D65261",
"^.	c #AA464F",
"/.	c #B47A7F",
"(.	c #D23D50",
"_.	c #B66068",
":.	c #AB5E67",
"<.	c #E44352",
"[.	c #F14A59",
"}.	c #9E4646",
"|.	c #8A514F",
"1.	c #DF535F",
"2.	c #E35361",
"3.	c #D13F5B",
"4.	c #CB3B5B",
"5.	c #CF3D57",
"6.	c #DB3F5B",
"7.	c #E6435B",
"8.	c #EE4458",
"9.	c #EA4458",
"0.	c #F2475B",
"a.	c #F1475B",
"b.	c #F44B5C",
"c.	c #874343",
"d.	c #BFA2A1",
"e.	c #954743",
"f.	c #EC5553",
"g.	c #E96B50",
"h.	c #E66F50",
"i.	c #EA7150",
"j.	c #EE7350",
"k.	c #F27450",
"l.	c #F6764F",
"m.	c #F7764F",
"n.	c #F77551",
"o.	c #AF5447",
"p.	c #AE8987",
"q.	c #EAEAEA",
"r.	c #B79595",
"s.	c #834A47",
"t.	c #9D4C47",
"u.	c #9B4C46",
"v.	c #9B4E46",
"w.	c #9C4C46",
"x.	c #9E4F44",
"y.	c #9F4E44",
"z.	c #A14F44",
"A.	c #874043",
"B.	c #AF8A88",
"  . + @ @ @ @ @ @ @ @ # $   ",
"% & * = - - - - - - = ; > , ",
"' ) ! ~ ~ { ~ ~ ] ] ~ ^ / ( ",
"_ : < < [ } | 1 2 2 1 < 3 4 ",
"5 : 2 6 7 8 9 0 a a b c d e ",
"f g h i j k 8 l k k m n o p ",
"q r s t u v w w w x y z A B ",
"C D E F G H I I J K L M N O ",
"P Q R S T U V W X Y Z `  ...",
"+.@.#.$.%.&.*.=.-.;.>.,.'.).",
"!.~.{.].^./.(.L _.:.<.[.'.}.",
"|.1.2.3.4.5.6.7.8.9.0.a.b.c.",
"d.e.f.g.h.i.j.k.l.m.m.n.o.p.",
"q.r.s.t.u.v.w.x.y.y.z.A.B.q."};
