/* XPM */
static char * Data_tool_clicked_xpm[] = {
"36 36 19 1",
" 	c None",
".	c #FF0000",
"+	c #FF0606",
"@	c #FF1313",
"#	c #FF1B1B",
"$	c #FF2424",
"%	c #FF2D2D",
"&	c #FF3737",
"*	c #FFFFFF",
"=	c #101010",
"-	c #FF0202",
";	c #FF0404",
">	c #FF1010",
",	c #FF1111",
"'	c #FF1919",
")	c #FF1A1A",
"!	c #FF2222",
"~	c #FF2323",
"{	c #FF2C2C",
".............................+@#$%&.",
".**********************************.",
".**********************************.",
".**********************************.",
".****=***=*************************.",
".*****=*=**************************.",
".******=****************=***=******.",
".*****=*=*****=***=******=*=*******.",
".****=***=***=.=*=.=******=********.",
".*************=.=.=******=*=*******.",
".**************=********=***=******.",
".*************=.*=*****************.",
".************=.=*==****************.",
".*************=**===***************.",
".****************====**************.",
".****************=====*****=***=***.",
".****************======*****=*=****.",
".****************=======*****=*****.",
".******=***=*****========***=*=****.",
".*******=*=******=====*****=***=***.",
".********=*******==*==*************.",
".*******=*=******=***==************.",
".******=***=*********==************.",
".*********************==***********.",
".*********************==***********.",
".**********************************.",
".*******************=**************.",
".********====*******=**************.",
".********=***=*==**===*==**********.",
"-********=***=***=**=****=*********;",
">********=***=*===**=**===*********,",
"'********=***=*=*=**=**=*=*********)",
"!********====**==*=*=**==*=********~",
".**********************************{",
".**********************************.",
".............................;,)~{.."};
