/* XPM */
static const char * Element_point_tool_clicked_xpm[] = {
"36 36 20 1",
" 	c None",
".	c #FF0000",
"+	c #FFFFFF",
"@	c #101010",
"#	c #A9A9A9",
"$	c #FF0404",
"%	c #FF1111",
"&	c #FF1A1A",
"*	c #FF2323",
"=	c #FF2C2C",
"-	c #FF3636",
";	c #FF3F3F",
">	c #FF0A0A",
",	c #FF1010",
"'	c #FF1919",
")	c #FF2222",
"!	c #FF2A2A",
"~	c #FF3434",
"{	c #FF3D3D",
"]	c #FF0505",
"....................................",
".++++++++++++++++++++++++++++++++++.",
".++++++++++++++++++++++++++++++++++.",
".++++++++++++++++++++++++++++++++++.",
".++++++++++++++++++++++++++++++++++.",
".++++++++@@##@@##@@##@@##@@++++++++.",
".++++++++@@++@@++@@++@@++@@++++++++.",
".++++++++#++++++++++++++++#++++++++.",
".++++++++#++++++++++++++++#++++++++.",
".++++++++@@++@@++@@++@@++@@++++++++.",
".++++++++@@++@@++@@++@@++@@++++++++.",
".++++++++#++++++++++++++++#++++++++.",
".++++++++#++++++++++++++++#++++++++.",
".++++++++@@++@@++@@++@@++@@++++++++.",
".++++++++@@++@@++@@++@@++@@++++++++.",
".++++++++#++++++++++++++++#++++++++.",
".++++++++#++++++++++++++++#++++++++.",
".++++++++@@++@@++@@++@@++@@++++++++.",
".++++++++@@++@@++@@++@@++@@++++++++.",
".++++++++#++++++++++++++++#++++++++.",
".++++++++#++++++++++++++++#++++++++.",
".++++++++@@++@@++@@++@@++@@++++++++.",
".++++++++@@##@@##@@##@@##@@++++++++.",
".++++++++++++++++++++++++++++++++++.",
".++++++++++++++++++++++++++++++++++.",
".++++++++++++++++++++++++++++++++++.",
".++++++++@++++++++++++++++++++@++++.",
".+++@@@@+@++++++++++++++@@@+++@++++.",
"$+++@++++@++@++@@@@+++++@++@+@@@+++.",
"%+++@@@++@+@+@+@+@+@++++@++@++@++++.",
"&+++@++++@+@@@+@+@+@++++@@@+++@++++.",
"*+++@++++@+@+++@+@+@++++@+++++@++++.",
"=+++@@@@+@++@@+@+@+@+@++@+++++@+@++.",
"-++++++++++++++++++++++++++++++++++.",
";++++++++++++++++++++++++++++++++++>",
".............................,')!~{]"};
