/* XPM */
static char * Element_tool_clicked_xpm[] = {
"36 36 27 1",
" 	c None",
".	c #FF0000",
"+	c #FF0A0A",
"@	c #FF1616",
"#	c #FF1F1F",
"$	c #FF2929",
"%	c #FF3131",
"&	c #FF3B3B",
"*	c #FFFFFF",
"=	c #101010",
"-	c #FF1010",
";	c #FF1919",
">	c #FF1414",
",	c #FF2121",
"'	c #FF1D1D",
")	c #FF2A2A",
"!	c #FF2626",
"~	c #FF3434",
"{	c #FF2F2F",
"]	c #FF3D3D",
"^	c #FF3939",
"/	c #FF1515",
"(	c #FF1E1E",
"_	c #FF2727",
":	c #FF3030",
"<	c #FF3A3A",
"[	c #FF1111",
".............................+@#$%&.",
".**********************************.",
".***************===****************.",
".***************===****************.",
".*************=*===*=**************.",
".***********=*********=************.",
".******====*************====*******.",
".******===***************===*******.",
".******===*=***********=*===*******.",
".************=**===**=*...*********.",
".*******=******=====*.....=********.",
".***************===.......*********.",
".*******=*********...**...=********.",
".****************=...*=*..*********.",
".*******=*********...*==*.=********.",
".****************=...*===**********.",
".******===********...*====*=*******.",
".******===*******=...*=====********.",
".******===*=******...*======*******.",
".************=**===..*=======******.",
".**************=====**========*****.",
".***************===***=====********.",
".*********************==*==********.",
".*********************=***==*******.",
".*************************==*******.",
".**************************==******.",
".********=*****************==**=***.",
".***====*=*********************=***.",
".***=****=**=**====***=**===**===**.",
"-***===**=*=*=*=*=*=*=*=*=**=**=***+",
";***=****=*===*=*=*=*===*=**=**=***>",
",***=****=*=***=*=*=*=***=**=**=***'",
")***====*=**==*=*=*=**==*=**=**=***!",
"~**********************************{",
"]**********************************^",
".............................+/(_:<["};
