/* XPM */
static char * Element_point_tool_unclicked_xpm[] = {
"36 36 5 1",
" 	c None",
".	c #EAEAEA",
"+	c #101010",
"@	c #A9A9A9",
"#	c #FFFFFF",
"....................................",
"....................................",
"....................................",
"....................................",
"....................................",
".........++@@++@@++@@++@@++.........",
".........++##++##++##++##++.........",
".........@################@.........",
".........@################@.........",
".........++##++##++##++##++.........",
".........++##++##++##++##++.........",
".........@################@.........",
".........@################@.........",
".........++##++##++##++##++.........",
".........++##++##++##++##++.........",
".........@################@.........",
".........@################@.........",
".........++##++##++##++##++.........",
".........++##++##++##++##++.........",
".........@################@.........",
".........@################@.........",
".........++##++##++##++##++.........",
".........++@@++@@++@@++@@++.........",
"....................................",
"....................................",
"....................................",
".........+....................+.....",
"....++++.+..............+++...+.....",
"....+....+..+..++++.....+##+.+++....",
"....+++..+.+#+.+.+.+....+##+..+.....",
"....+....+.+++.+.+.+....+++...+.....",
"....+....+.+...+.+.+....+.....+.....",
"....++++.+..++.+.+.+.+..+.....+.+...",
"....................................",
"....................................",
"...................................."};
