/* XPM */
static char * fastbackward_xpm[] = {
"34 35 5 1",
" 	c None",
".	c #F8F6F5",
"+	c #8A8885",
"@	c #EEEAE6",
"#	c #101010",
"..................................",
".................................+",
"..@@@@@@@@@@@@@@@@@@@@@@@@@@@@@@++",
"..@@@@@@@@@@@@@@@@@@@@@@@@@@@@@@++",
"..@@@@@@@@@@@@@@@@@@@@@@@@@@@@@@++",
"..@@@@@@@@@@@@@@@@@@@@@@@@@@@@@@++",
"..@@@####@@@@@@@##@@@@@@@##@@@@@++",
"..@@@####@@@@@@###@@@@@@###@@@@@++",
"..@@@####@@@@@@###@@@@@@###@@@@@++",
"..@@@####@@@@@####@@@@@####@@@@@++",
"..@@@####@@@@#####@@@@#####@@@@@++",
"..@@@####@@@######@@@######@@@@@++",
"..@@@####@@@######@@@######@@@@@++",
"..@@@####@@#######@@#######@@@@@++",
"..@@@####@########@########@@@@@++",
"..@@@####@########@########@@@@@++",
"..@@@######################@@@@@++",
"..@@@######################@@@@@++",
"..@@@######################@@@@@++",
"..@@@####@########@########@@@@@++",
"..@@@####@########@########@@@@@++",
"..@@@####@@#######@@#######@@@@@++",
"..@@@####@@@######@@@######@@@@@++",
"..@@@####@@@######@@@######@@@@@++",
"..@@@####@@@@#####@@@@#####@@@@@++",
"..@@@####@@@@@####@@@@@####@@@@@++",
"..@@@####@@@@@@###@@@@@@###@@@@@++",
"..@@@####@@@@@@###@@@@@@###@@@@@++",
"..@@@####@@@@@@@##@@@@@@@##@@@@@++",
"..@@@@@@@@@@@@@@@@@@@@@@@@@@@@@@++",
"..@@@@@@@@@@@@@@@@@@@@@@@@@@@@@@++",
"..@@@@@@@@@@@@@@@@@@@@@@@@@@@@@@++",
"..@@@@@@@@@@@@@@@@@@@@@@@@@@@@@@++",
"..++++++++++++++++++++++++++++++++",
".+++++++++++++++++++++++++++++++++"};
