/* XPM */
static char * Transform_tool_unclicked_xpm[] = {
"36 36 6 1",
" 	c None",
".	c #EAEAEA",
"+	c #101010",
"@	c #FFFFFF",
"#	c #D3D3D3",
"$	c #A9A9A9",
"....................................",
"....................................",
".................+..................",
"................+@+.................",
"...............+@@@+................",
"..............+++@+++...............",
"...........++...+@+...++............",
".........++++...+++...++++..........",
"..........++...........++...........",
".........+.+....+++....+.+..........",
".........+....++@@@++....+..........",
"......+.+...++@@@@@@@++...+.+.......",
".....++.+...+#++@@@++$+...+.++......",
"....+@+++++.+###+++$$$+.+++++@+.....",
"...+@@@@@@+.+####+$$$$+.+@@@@@@+....",
"....+@+++++.+####+$$$$+.+++++@+.....",
".....++.+...+####+$$$$+...+.++......",
"......+.+...++###+$$$++...+.+.......",
".........+....++#+$++....+..........",
".........+.+....+++....+.+..........",
"..........++...........++...........",
".........++++...+++...++++..........",
"...........++...+@+...++............",
"..............+++@+++...............",
"...............+@@@+................",
"................+@+.................",
".................+...........+......",
".....+++++..................+.......",
".......+..+.+.++..+++...++.+++......",
".......+..++....+.+..+.+....+.......",
".......+..+...+++.+..+..++..+.......",
".......+..+...+@+.+..+...+..+.......",
".......+..+...++.++..+.++...+.+.....",
"....................................",
"....................................",
"...................................."};
