/* XPM */
static const char * unticked_box_xpm[] = {
"13 13 6 1",
" 	c None",
".	c #BAB8B7",
"+	c #73706D",
"@	c #777471",
"#	c #767370",
"$	c #FFFFFF",
".++++++++++@.",
"#$$$$$$$$$$$#",
"+$$$$$$$$$$$+",
"+$$$$$$$$$$$+",
"+$$$$$$$$$$$+",
"+$$$$$$$$$$$+",
"+$$$$$$$$$$$+",
"+$$$$$$$$$$$+",
"+$$$$$$$$$$$+",
"+$$$$$$$$$$$+",
"+$$$$$$$$$$$+",
"#$$$$$$$$$$$#",
".@+++++++++@."};
